<svg height="512" viewBox="0 0 512 512" width="512" xmlns="http://www.w3.org/2000/svg"><g id="filled_outline" data-name="filled outline"><path d="m44 56h424a20 20 0 0 1 20 20v28a0 0 0 0 1 0 0h-464a0 0 0 0 1 0 0v-28a20 20 0 0 1 20-20z" fill="#009cf7"/><circle cx="56" cy="80" fill="#007af6" r="8"/><circle cx="88" cy="80" fill="#007af6" r="8"/><circle cx="120" cy="80" fill="#007af6" r="8"/><path d="m24 104h464a0 0 0 0 1 0 0v268a20 20 0 0 1 -20 20h-424a20 20 0 0 1 -20-20v-268a0 0 0 0 1 0 0z" fill="#eaeae8"/><path d="m96 136h320v256h-320z" fill="#fbb540"/><path d="m128 168h168v144h-168z" fill="#eaeae8"/><path d="m204.886 284.876a19.32 19.32 0 0 1 -4.688-.58l-9.688-2.422a19.129 19.129 0 0 1 -14.51-18.584v-23.29a8 8 0 0 1 16 0v23.29a3.152 3.152 0 0 0 2.391 3.062l9.687 2.421a3.156 3.156 0 0 0 3.922-3.062v-17.711a8 8 0 0 1 16 0v17.711a19.171 19.171 0 0 1 -19.114 19.165z" fill="#961b20"/><g fill="#d18d28"><path d="m384 192h-40a8 8 0 0 1 0-16h40a8 8 0 0 1 0 16z"/><path d="m384 240h-56a8 8 0 0 1 0-16h56a8 8 0 0 1 0 16z"/><path d="m384 288h-56a8 8 0 0 1 0-16h56a8 8 0 0 1 0 16z"/><path d="m368 352h-224a8 8 0 0 1 0-16h224a8 8 0 0 1 0 16z"/></g><path d="m388.298 289.27h32v160h-32z" fill="#027e2a" transform="matrix(.737 -.676 .676 .737 -143.256 370.565)"/><path d="m321.415 293.107 17 28.039 23.585-21.636-26.48-19.343a9.758 9.758 0 0 0 -12.354.69 9.758 9.758 0 0 0 -1.751 12.25z" fill="#fdc9a6"/><path d="m453.207 424h32a0 0 0 0 1 0 0v16a16 16 0 0 1 -16 16 16 16 0 0 1 -16-16v-16a0 0 0 0 1 0 0z" fill="#ffd6db" transform="matrix(.737 -.676 .676 .737 -173.994 433.072)"/><path d="m431.571 400.423h32v32h-32z" fill="#cbcbcb" transform="matrix(.737 -.676 .676 .737 -163.748 412.236)"/><path d="m184 248 72 16v-64l-72 16z" fill="#ff3444"/><rect fill="#e82f3e" height="48" rx="16" width="32" x="160" y="208"/><path d="m468 48h-424a28.032 28.032 0 0 0 -28 28v296a28.032 28.032 0 0 0 28 28h355.924l40.783 44.439 10.818 11.789a24 24 0 1 0 35.365-32.456l-10.819-11.788-11-11.984h2.929a28.032 28.032 0 0 0 28-28v-296a28.032 28.032 0 0 0 -28-28zm-436 28a12.013 12.013 0 0 1 12-12h424a12.013 12.013 0 0 1 12 12v20h-448zm72 308v-240h304v193.809l-40.111-43.709c-.1-.11-.21-.209-.316-.312-.07-.068-.135-.139-.208-.2a8.141 8.141 0 0 0 -.653-.535l-6.912-5.053h24.2a8 8 0 0 0 0-16h-46.66a17.751 17.751 0 0 0 -22.766 25.255l16.965 27.976.035.057v.006c.006.011.014.02.021.031a7.923 7.923 0 0 0 .451.659c.064.084.135.162.2.243.09.11.175.223.272.329l8.673 9.444h-197.191a8 8 0 0 0 0 16h211.874l29.367 32zm348.98 38.317-5.9 5.41-10.818-11.789 11.789-10.818 10.818 11.788zm-27.531-18.167-75.728-82.519 11.789-10.818 75.728 82.519zm-96.879-117.4a1.762 1.762 0 0 1 2.226-.125l18.6 13.587-9.2 8.44-11.944-19.695a1.761 1.761 0 0 1 .318-2.205zm146.047 159.144a8.011 8.011 0 0 1 -11.3-.485l-5.409-5.894 11.784-10.815 5.41 5.895a8 8 0 0 1 -.485 11.3zm-6.617-61.894h-17.61l-26.39-28.757v-219.243a8 8 0 0 0 -8-8h-320a8 8 0 0 0 -8 8v248h-44a12.013 12.013 0 0 1 -12-12v-260h448v260a12.013 12.013 0 0 1 -12 12z"/><circle cx="56" cy="80" r="8"/><circle cx="88" cy="80" r="8"/><circle cx="120" cy="80" r="8"/><path d="m304 312v-144a8 8 0 0 0 -8-8h-168a8 8 0 0 0 -8 8v144a8 8 0 0 0 8 8h168a8 8 0 0 0 8-8zm-16-8h-152v-128h152z"/><path d="m176 264h.03a19.115 19.115 0 0 0 14.48 17.875l9.69 2.425a19.32 19.32 0 0 0 4.688.58 19.171 19.171 0 0 0 19.112-19.169v-.627l30.265 6.726a8 8 0 0 0 9.735-7.81v-64a8 8 0 0 0 -9.735-7.81l-62.36 13.858a23.983 23.983 0 0 0 -39.905 17.952v16a24.027 24.027 0 0 0 24 24zm32 1.711a3.156 3.156 0 0 1 -3.922 3.062l-9.687-2.421a3.152 3.152 0 0 1 -2.391-3.062v-5.317l16 3.555zm40-11.684-48.233-10.719a24.063 24.063 0 0 0 .233-3.308v-16a24.063 24.063 0 0 0 -.233-3.308l48.233-10.719zm-80-30.027a8 8 0 0 1 16 0v16a8 8 0 0 1 -16 0z"/><path d="m344 192h40a8 8 0 0 0 0-16h-40a8 8 0 0 0 0 16z"/><path d="m328 240h56a8 8 0 0 0 0-16h-56a8 8 0 0 0 0 16z"/></g></svg>