<svg id="Layer_3" enable-background="new 0 0 64 64" height="512" viewBox="0 0 64 64" width="512" xmlns="http://www.w3.org/2000/svg"><path d="m18 58h4v4h-4z" fill="#4d5d7a"/><path d="m32 38h6v20h-36v-20h6" fill="#c7e2fc"/><path d="m8 38h-6v15.983c.333.007.665.017 1 .017 14.03 0 25.732-6.871 28.419-16z" fill="#ebf7fe"/><path d="m55 17h1.394c2.253 0 4.356-1.126 5.606-3-2.209 0-4-1.791-4-4v-1c0-3.866-3.134-7-7-7-3.866 0-7 3.134-7 7v1c0 2.209-1.791 4-4 4 1.249 1.874 3.353 3 5.606 3h1.394" fill="#c18e59"/><path d="m51 6c0 2.209 1.791 4 4 4h1v3c0 2.761-2.239 5-5 5-2.761 0-5-2.239-5-5v-3h1c2.209 0 4-1.791 4-4z" fill="#efbe9a"/><path d="m60 28h-18v-4c0-3.314 2.686-6 6-6h6c3.314 0 6 2.686 6 6z" fill="#f5b953"/><path d="m54 18h-6c-3.314 0-6 2.686-6 6v1.8c.973.127 1.974.2 3 .2 5.928 0 11.091-2.222 13.855-5.515-1.09-1.503-2.856-2.485-4.855-2.485z" fill="#f9d18b"/><path d="m49 22 2-2 2 2 2.795-3.726c-.567-.178-1.17-.274-1.795-.274h-6c-.625 0-1.228.096-1.795.274z" fill="#efbe9a"/><path d="m29 54h-18v-4c0-3.314 2.686-6 6-6h6c3.314 0 6 2.686 6 6z" fill="#2d4d83"/><path d="m23 44h-6c-3.314 0-6 2.686-6 6v1.8c.973.127 1.974.2 3 .2 5.928 0 11.091-2.222 13.855-5.515-1.09-1.503-2.856-2.485-4.855-2.485z" fill="#4472b2"/><path d="m18 48 2-2 2 2 2.795-3.726c-.567-.178-1.17-.274-1.795-.274h-6c-.625 0-1.228.096-1.795.274z" fill="#efbe9a"/><path d="m22.599 28.499c.255-.441.401-.953.401-1.499 0-1.657-1.343-3-3-3s-3 1.343-3 3c0 .546.146 1.058.401 1.499" fill="#976947"/><path d="m25 34v5c0 2.761-2.239 5-5 5-2.761 0-5-2.239-5-5v-5" fill="#efbe9a"/><path d="m23 32c0 2.209 1.791 4 4 4v-1c0-3.866-3.134-7-7-7-3.866 0-7 3.134-7 7v1h6c2.209 0 4-1.791 4-4z" fill="#c18e59"/><path d="m15 36h-2c-1.105 0-2 .895-2 2 0 1.105.895 2 2 2h2" fill="#db9b7c"/><path d="m27 37c-1.634 0-3.087-.788-4-2.003-.913 1.215-2.366 2.003-4 2.003h-6c-.553 0-1-.448-1-1v-1c0-4.411 3.589-8 8-8s8 3.589 8 8v1c0 .552-.447 1-1 1zm-13-2h5c1.654 0 3-1.346 3-3 0-.552.447-1 1-1s1 .448 1 1c0 1.303.835 2.415 1.998 2.828-.092-3.229-2.747-5.828-5.998-5.828-3.309 0-6 2.691-6 6z"/><path d="m20 45c-3.309 0-6-2.691-6-6v-3h2v3c0 2.206 1.794 4 4 4s4-1.794 4-4v-4h2v4c0 3.309-2.691 6-6 6z"/><path d="m29 55h-18c-.553 0-1-.448-1-1v-4c0-3.86 3.141-7 7-7h6c3.859 0 7 3.14 7 7v4c0 .552-.447 1-1 1zm-17-2h16v-3c0-2.757-2.243-5-5-5h-6c-2.757 0-5 2.243-5 5z"/><path d="m14 49h2v5h-2z"/><path d="m24 49h2v5h-2z"/><path d="m16.536 29.001c-.35-.605-.536-1.297-.536-2.001 0-2.206 1.794-4 4-4s4 1.794 4 4c0 .703-.185 1.395-.534 2l-1.732-1.001c.174-.302.266-.647.266-.999 0-1.103-.897-2-2-2s-2 .897-2 2c0 .352.092.697.267.997z"/><path d="m15 41h-2c-1.654 0-3-1.346-3-3s1.346-3 3-3h1v2h-1c-.552 0-1 .449-1 1s.448 1 1 1h2z"/><path d="m29 41h-7v-2h6v-2h-2v-2h3c.553 0 1 .448 1 1v4c0 .552-.447 1-1 1z"/><path d="m38 59h-36c-.553 0-1-.448-1-1v-20c0-.552.447-1 1-1h6v2h-5v18h34v-18h-5v-2h6c.553 0 1 .448 1 1v20c0 .552-.447 1-1 1z"/><path d="m17 58h2v4h-2z"/><path d="m21 58h2v4h-2z"/><path d="m13 61h14v2h-14z"/><path d="m22 49c-.265 0-.519-.104-.707-.293l-1.293-1.293-1.293 1.293c-.205.206-.478.309-.778.291-.289-.021-.555-.166-.729-.397l-3-4 1.6-1.2 2.309 3.078 1.185-1.185c.391-.391 1.023-.391 1.414 0l1.185 1.185 2.307-3.079 1.6 1.2-3 4c-.174.232-.439.377-.729.397-.024.002-.048.003-.071.003z"/><path d="m56.395 18h-1.395v-2h1.395c1.384 0 2.696-.495 3.721-1.369-1.826-.745-3.116-2.54-3.116-4.631v-1c0-3.309-2.691-6-6-6s-6 2.691-6 6v1c0 2.091-1.29 3.886-3.115 4.631 1.024.874 2.337 1.369 3.72 1.369h1.395v2h-1.395c-2.593 0-5-1.288-6.438-3.445-.205-.307-.224-.702-.05-1.026.175-.326.514-.529.883-.529 1.654 0 3-1.346 3-3v-1c0-4.411 3.589-8 8-8s8 3.589 8 8v1c0 1.654 1.346 3 3 3 .369 0 .708.203.882.528s.155.719-.05 1.026c-1.437 2.158-3.845 3.446-6.437 3.446z"/><path d="m51 19c-3.309 0-6-2.691-6-6v-3c0-.552.447-1 1-1h1c1.654 0 3-1.346 3-3 0-.552.447-1 1-1s1 .448 1 1c0 1.654 1.346 3 3 3h1c.553 0 1 .448 1 1v3c0 3.309-2.691 6-6 6zm-4-8v2c0 2.206 1.794 4 4 4s4-1.794 4-4v-2c-1.634 0-3.087-.788-4-2.003-.913 1.215-2.366 2.003-4 2.003z"/><path d="m60 29h-18c-.553 0-1-.448-1-1v-4c0-3.86 3.141-7 7-7h6c3.859 0 7 3.14 7 7v4c0 .552-.447 1-1 1zm-17-2h16v-3c0-2.757-2.243-5-5-5h-6c-2.757 0-5 2.243-5 5z"/><path d="m45 23h2v5h-2z"/><path d="m55 23h2v5h-2z"/><path d="m53 23c-.265 0-.519-.104-.707-.293l-1.293-1.293-1.293 1.293c-.205.206-.478.31-.778.291-.289-.021-.555-.166-.729-.397l-3-4 1.6-1.2 2.309 3.078 1.185-1.185c.391-.391 1.023-.391 1.414 0l1.185 1.185 2.307-3.079 1.6 1.2-3 4c-.174.232-.439.377-.729.397-.024.002-.048.003-.071.003z"/><path d="m21 21h-2c0-6.617 5.383-12 12-12h10v2h-10c-5.514 0-10 4.486-10 10z"/><path d="m41 49v-2c5.514 0 10-4.486 10-10v-6h2v6c0 6.617-5.383 12-12 12z"/></svg>