<svg id="Icons" height="512" viewBox="0 0 74 74" width="512" xmlns="http://www.w3.org/2000/svg"><path d="m10.219 60.054a3.751 3.751 0 0 1 -3.745-3.954l1.206-22.294 2 .108-1.209 22.293a1.734 1.734 0 0 0 .477 1.3 1.794 1.794 0 0 0 2.544 0 1.736 1.736 0 0 0 .478-1.3l-1.206-22.293 2-.107 1.2 22.293a3.753 3.753 0 0 1 -3.747 3.955z"/><path d="m14.69 34.86h-8.734a3.961 3.961 0 0 1 -3.956-3.96v-4.317h16.646v4.317a3.961 3.961 0 0 1 -3.956 3.96zm-10.69-6.277v2.317a1.959 1.959 0 0 0 1.956 1.96h8.734a1.959 1.959 0 0 0 1.956-1.96v-2.317z"/><path d="m16.646 16.504h2v11.078h-2z"/><path d="m11.611 16.504h2v11.078h-2z"/><path d="m6.675 16.504h2v11.078h-2z"/><path d="m2 16.504h2v11.078h-2z"/><path d="m39.488 57.878c-10.455 0-18.961-9.016-18.961-20.1s8.506-20.1 18.961-20.1 18.962 9.022 18.962 20.101-8.506 20.099-18.962 20.099zm0-38.2c-9.353 0-16.961 8.119-16.961 18.1s7.608 18.1 16.961 18.1 16.962-8.119 16.962-18.1-7.609-18.098-16.962-18.098z"/><path d="m39.489 52.734c-7.857 0-14.249-6.709-14.249-14.955s6.392-14.955 14.249-14.955 14.248 6.709 14.248 14.955-6.391 14.955-14.248 14.955zm0-27.91c-6.754 0-12.249 5.812-12.249 12.955s5.5 12.955 12.249 12.955 12.248-5.812 12.248-12.955-5.494-12.955-12.248-12.955z"/><path d="m72 41.137h-11.415v-17.337c0-5.2 4.867-9.768 10.415-9.768h1zm-9.415-2h7.415v-23.048c-4.052.488-7.415 3.88-7.415 7.708z"/><path d="m68.385 59.967a3.619 3.619 0 0 1 -3.615-3.615v-17.215h7.23v17.215a3.619 3.619 0 0 1 -3.615 3.615zm-1.615-18.83v15.215a1.615 1.615 0 1 0 3.23 0v-15.215z"/></svg>